<?xml version="1.0" encoding="UTF-8" standalone="no"?>
<!-- Created with Inkscape (http://www.inkscape.org/) -->

<svg
   width="28.317226mm"
   height="8.2244596mm"
   viewBox="0 0 28.317226 8.2244596"
   version="1.1"
   id="svg5"
   sodipodi:docname="logo.svg"
   inkscape:version="1.2 (dc2aedaf03, 2022-05-15)"
   xmlns:inkscape="http://www.inkscape.org/namespaces/inkscape"
   xmlns:sodipodi="http://sodipodi.sourceforge.net/DTD/sodipodi-0.dtd"
   xmlns:xlink="http://www.w3.org/1999/xlink"
   xmlns="http://www.w3.org/2000/svg"
   xmlns:svg="http://www.w3.org/2000/svg">
  <sodipodi:namedview
     id="namedview24"
     pagecolor="#ffffff"
     bordercolor="#666666"
     borderopacity="1.0"
     inkscape:showpageshadow="2"
     inkscape:pageopacity="0.0"
     inkscape:pagecheckerboard="0"
     inkscape:deskcolor="#d1d1d1"
     inkscape:document-units="mm"
     showgrid="false"
     inkscape:zoom="6.1013361"
     inkscape:cx="36.877168"
     inkscape:cy="-7.5393322"
     inkscape:window-width="2560"
     inkscape:window-height="1411"
     inkscape:window-x="0"
     inkscape:window-y="0"
     inkscape:window-maximized="1"
     inkscape:current-layer="svg5" />
  <defs
     id="defs2">
    <linearGradient
       id="linearGradient359">
      <stop
         style="stop-color:#0ae7ff;stop-opacity:1;"
         offset="0"
         id="stop355" />
      <stop
         style="stop-color:#efff0a;stop-opacity:1;"
         offset="1"
         id="stop357" />
    </linearGradient>
    <linearGradient
       xlink:href="#linearGradient359"
       id="linearGradient1747"
       gradientUnits="userSpaceOnUse"
       gradientTransform="translate(22.401237,2.8657916)"
       x1="50.440983"
       y1="108.14787"
       x2="50.440983"
       y2="112.54278" />
    <linearGradient
       xlink:href="#linearGradient359"
       id="linearGradient2085"
       gradientUnits="userSpaceOnUse"
       gradientTransform="translate(-42.634904,-105.66758)"
       x1="50.440983"
       y1="108.14787"
       x2="50.440983"
       y2="112.54278" />
    <linearGradient
       xlink:href="#linearGradient359"
       id="linearGradient2087"
       gradientUnits="userSpaceOnUse"
       gradientTransform="translate(-42.634904,-105.66758)"
       x1="50.440983"
       y1="108.14787"
       x2="50.440983"
       y2="112.54278" />
    <linearGradient
       xlink:href="#linearGradient359"
       id="linearGradient2089"
       gradientUnits="userSpaceOnUse"
       gradientTransform="translate(-42.634904,-105.66758)"
       x1="50.440983"
       y1="108.14787"
       x2="50.440983"
       y2="112.54278" />
    <linearGradient
       xlink:href="#linearGradient359"
       id="linearGradient2091"
       gradientUnits="userSpaceOnUse"
       gradientTransform="translate(-42.634904,-105.66758)"
       x1="50.440983"
       y1="108.14787"
       x2="50.440983"
       y2="112.54278" />
  </defs>
  <path
     d="M 0.05291,3.01159 Q 0.03174,2.96929 0.01058,2.91629 0,2.85279 0,2.81045 0,2.67287 0.116416,2.54587 0.232833,2.41887 0.391582,2.32362 0.560915,2.22842 0.751414,2.17546 q 0.201083,-0.0529 0.359833,-0.0529 0.148166,0 0.275165,0.0635 0.127,0.0529 0.179916,0.20108 l 1.09008,2.76224 1.09008,-2.76224 q 0.05292,-0.14816 0.169333,-0.20108 0.127,-0.0635 0.275166,-0.0635 0.126999,0 0.317499,0.0635 0.190499,0.0529 0.359832,0.14816 0.179916,0.0952 0.306916,0.22225 0.126999,0.127 0.126999,0.26459 0,0.0952 -0.04233,0.1905 L 3.397242,7.08613 q -0.0635,0.14816 -0.285749,0.21166 -0.211666,0.0741 -0.455082,0.0741 -0.243416,0 -0.465665,-0.0741 Q 1.97908,7.23429 1.91558,7.08613 Z"
     style="font-weight:800;font-size:10.5833px;line-height:1.25;font-family:Dosis;-inkscape-font-specification:'Dosis, Ultra-Bold';vector-effect:none;fill:url(#linearGradient2085);stroke-width:0.490664;stroke-linecap:round;stop-color:#000000"
     id="path1749" />
  <path
     d="m 7.95864,2.13317 q 0.486832,0 0.920747,0.17992 0.433915,0.16933 0.761998,0.47625 0.338665,0.29633 0.529165,0.70908 0.201082,0.40216 0.201082,0.85725 V 5.0965 q 0,0.44449 -0.201082,0.84666 Q 9.98005,6.34533 9.641385,6.66282 9.313302,6.96974 8.879387,7.16024 8.445472,7.34016 7.95864,7.34016 7.471808,7.34016 7.037893,7.16024 6.603978,6.96974 6.275895,6.66282 5.947813,6.35591 5.74673,5.95374 5.556231,5.54099 5.556231,5.0965 V 4.35567 q 0,-0.4445 0.190499,-0.84667 Q 5.93723,3.10684 6.254729,2.79992 6.582811,2.493 7.016726,2.31309 7.461225,2.13317 7.95864,2.13317 Z m 0.772581,2.2225 q 0,-0.14817 -0.0635,-0.28575 Q 8.604221,3.92175 8.498388,3.81592 8.403138,3.6995 8.254972,3.636 8.11739,3.5619 7.95864,3.5619 7.799891,3.5619 7.662308,3.636 7.524725,3.6995 7.418892,3.81592 7.313059,3.92175 7.249559,4.06992 7.196639,4.2075 7.196639,4.35567 V 5.0965 q 0,0.3175 0.222249,0.57149 0.222249,0.24342 0.539748,0.24342 0.317499,0 0.539748,-0.24342 Q 8.731217,5.414 8.731217,5.0965 Z"
     style="font-weight:800;font-size:10.5833px;line-height:1.25;font-family:Dosis;-inkscape-font-specification:'Dosis, Ultra-Bold';vector-effect:none;fill:url(#linearGradient2087);stroke-width:0.490664;stroke-linecap:round;stop-color:#000000"
     id="path1751" />
  <path
     d="m 12.043802,0 c 0.225777,0 0.419805,0.0459 0.582082,0.13759 0.162277,0.0917 0.243416,0.21166 0.243416,0.35983 v 6.2289 c 0,0.127 -0.08114,0.24342 -0.243416,0.34925 -0.162277,0.10583 -0.356305,0.15875 -0.582082,0.15875 -0.239888,0 -0.437443,-0.0529 -0.592664,-0.15875 -0.148167,-0.10583 -0.22225,-0.22225 -0.22225,-0.34925 v -6.2289 c 0,-0.14817 0.07408,-0.26811 0.22225,-0.35983 C 11.606359,0.04589 11.803914,0 12.043802,0 Z"
     style="font-weight:800;font-size:10.5833px;line-height:1.25;font-family:Dosis;-inkscape-font-specification:'Dosis, Ultra-Bold';vector-effect:none;fill:url(#linearGradient2089);stroke-width:0.490664;stroke-linecap:round;stop-color:#000000"
     id="path1753" />
  <path
     d="m 15.536296,5.44574 q 0,0.23284 0.09525,0.32809 0.09525,0.0847 0.338666,0.0847 h 0.455081 q 0.359833,0 0.529165,0.22225 0.169333,0.21167 0.169333,0.46567 0,0.26458 -0.169333,0.47625 -0.169332,0.21166 -0.529165,0.21166 h -0.455081 q -1.015997,0 -1.545162,-0.42333 Q 13.895885,6.3877 13.895885,5.44578 v -4.9424 q 0,-0.10583 0.07408,-0.20108 0.07408,-0.0952 0.190499,-0.15875 0.116417,-0.0635 0.254,-0.0952 0.148166,-0.0423 0.296332,-0.0423 0.158749,0 0.306916,0.0423 0.148166,0.0318 0.264582,0.0952 0.116416,0.0635 0.179916,0.15875 0.07408,0.0953 0.07408,0.20108 v 1.69333 h 1.195913 q 0.201083,0 0.296333,0.1905 0.105833,0.17992 0.105833,0.39158 0,0.22225 -0.105833,0.40217 -0.09525,0.17991 -0.296333,0.17991 H 15.53629 Z"
     style="font-weight:800;font-size:10.5833px;line-height:1.25;font-family:Dosis;-inkscape-font-specification:'Dosis, Ultra-Bold';vector-effect:none;fill:url(#linearGradient2091);stroke-width:0.490664;stroke-linecap:round;stop-color:#000000"
     id="path1755" />
  <path
     d="m 17.913771,6.64998 q 0.111465,0 0.19042,0.0836 0.0836,0.079 0.0836,0.19507 0,0.11146 -0.0836,0.19506 -0.07896,0.0836 -0.19042,0.0836 -0.120755,0 -0.19971,-0.0836 -0.07895,-0.0836 -0.07895,-0.19506 0,-0.11611 0.07895,-0.19507 0.07895,-0.0836 0.19971,-0.0836 z"
     id="path2074"
     style="font-weight:600;font-size:4.6444px;line-height:1.25;font-family:Dosis;-inkscape-font-specification:'Dosis, Semi-Bold';fill:url(#linearGradient2091);stroke-width:0.490664;font-variation-settings:normal;opacity:1;vector-effect:none;fill-opacity:1;stroke-linecap:round;stroke-linejoin:miter;stroke-miterlimit:4;stroke-dasharray:none;stroke-dashoffset:0;stroke-opacity:1;-inkscape-stroke:none;stop-color:#000000;stop-opacity:1" />
  <path
     d="m 19.483578,7.21659 q -0.250798,0 -0.436574,-0.0697 -0.181131,-0.0697 -0.301886,-0.19042 -0.11611,-0.1254 -0.171842,-0.2926 -0.05573,-0.17184 -0.05573,-0.37155 v -0.418 q 0,-0.19506 0.05573,-0.36226 0.05573,-0.17185 0.171842,-0.2926 0.120755,-0.1254 0.301886,-0.19506 0.181132,-0.0743 0.43193,-0.0743 0.157909,0 0.287952,0.0325 0.130044,0.0279 0.222932,0.079 0.09753,0.0464 0.14862,0.10682 0.05109,0.0604 0.05109,0.12076 0,0.0697 -0.05573,0.15326 -0.05109,0.0836 -0.139332,0.0836 -0.03715,0 -0.07431,-0.0232 -0.03716,-0.0232 -0.09289,-0.0465 -0.05109,-0.0279 -0.125399,-0.0511 -0.07431,-0.0232 -0.185776,-0.0232 -0.264731,0 -0.39013,0.13005 -0.120754,0.13004 -0.120754,0.36226 v 0.418 q 0,0.23222 0.120754,0.36226 0.125399,0.13004 0.394774,0.13004 0.11611,0 0.190421,-0.0232 0.07431,-0.0232 0.125398,-0.0511 0.05573,-0.0325 0.09289,-0.0557 0.03716,-0.0232 0.07895,-0.0232 0.09753,0 0.153265,0.0789 0.05573,0.079 0.05573,0.15327 0,0.0604 -0.05573,0.1254 -0.05573,0.0604 -0.153265,0.11146 -0.09753,0.0511 -0.23222,0.0836 -0.134687,0.0325 -0.292597,0.0325 z"
     id="path2076"
     style="font-weight:600;font-size:4.6444px;line-height:1.25;font-family:Dosis;-inkscape-font-specification:'Dosis, Semi-Bold';fill:url(#linearGradient2091);stroke-width:0.490664;font-variation-settings:normal;opacity:1;vector-effect:none;fill-opacity:1;stroke-linecap:round;stroke-linejoin:miter;stroke-miterlimit:4;stroke-dasharray:none;stroke-dashoffset:0;stroke-opacity:1;-inkscape-stroke:none;stop-color:#000000;stop-opacity:1" />
  <path
     d="m 21.271675,4.95012 q 0.255442,0 0.431929,0.079 0.181132,0.0743 0.292597,0.19971 0.111466,0.1254 0.162554,0.28795 0.05109,0.16256 0.05109,0.3344 v 1.16574 q 0,0.065 -0.06967,0.11611 -0.06502,0.0465 -0.167199,0.0465 -0.09289,0 -0.157909,-0.0465 -0.06502,-0.0511 -0.06502,-0.11611 V 6.85437 q -0.120754,0.14398 -0.292597,0.25544 -0.171843,0.10682 -0.408707,0.10682 -0.125399,0 -0.241509,-0.0371 -0.111466,-0.0372 -0.195065,-0.11147 -0.0836,-0.0789 -0.134688,-0.19042 -0.04644,-0.11611 -0.04644,-0.27402 0,-0.19506 0.07895,-0.32511 0.07896,-0.13004 0.222931,-0.20435 0.143977,-0.0743 0.343686,-0.10218 0.199709,-0.0325 0.441218,-0.0325 h 0.204354 v -0.0836 q 0,-0.0882 -0.02322,-0.17648 -0.02322,-0.0929 -0.07895,-0.16256 -0.05573,-0.0743 -0.143977,-0.11611 -0.08824,-0.0464 -0.213642,-0.0464 -0.125399,0 -0.208998,0.0232 -0.0836,0.0186 -0.139332,0.0464 -0.05573,0.0279 -0.09753,0.0511 -0.03716,0.0186 -0.06967,0.0186 -0.08824,0 -0.134688,-0.079 -0.0418,-0.0836 -0.0418,-0.16719 0,-0.0604 0.06502,-0.11611 0.06502,-0.0557 0.167198,-0.0929 0.102177,-0.0418 0.222932,-0.065 0.125398,-0.0232 0.246153,-0.0232 z m 0.450507,1.25864 h -0.11611 q -0.134688,0 -0.260087,0.0139 -0.120754,0.009 -0.213642,0.0464 -0.09289,0.0325 -0.153265,0.0975 -0.05573,0.065 -0.05573,0.17648 0,0.15791 0.0836,0.23222 0.08824,0.0697 0.218287,0.0697 0.08824,0 0.176487,-0.0418 0.08824,-0.0418 0.15791,-0.10682 0.07431,-0.065 0.11611,-0.14862 0.04644,-0.0836 0.04644,-0.1672 z"
     id="path2078"
     style="font-weight:600;font-size:4.6444px;line-height:1.25;font-family:Dosis;-inkscape-font-specification:'Dosis, Semi-Bold';fill:url(#linearGradient2091);stroke-width:0.490664;font-variation-settings:normal;opacity:1;vector-effect:none;fill-opacity:1;stroke-linecap:round;stroke-linejoin:miter;stroke-miterlimit:4;stroke-dasharray:none;stroke-dashoffset:0;stroke-opacity:1;-inkscape-stroke:none;stop-color:#000000;stop-opacity:1" />
  <path
     d="m 24.058311,5.86043 q 0,-0.21829 -0.130044,-0.34833 -0.130043,-0.13005 -0.301886,-0.13005 -0.0836,0 -0.162554,0.0325 -0.07431,0.0279 -0.134687,0.0929 -0.06038,0.0604 -0.09753,0.15327 -0.03715,0.0882 -0.03715,0.20435 v 1.15181 q 0,0.0604 -0.07431,0.11147 -0.07431,0.0511 -0.171843,0.0511 -0.106821,0 -0.176487,-0.0511 Q 22.7068,7.07725 22.7068,7.01688 V 5.1359 q 0,-0.0697 0.06502,-0.11146 0.06967,-0.0465 0.176487,-0.0465 0.08824,0 0.153265,0.0465 0.06502,0.0418 0.06502,0.11146 v 0.1672 q 0.07896,-0.13469 0.227575,-0.24151 0.153266,-0.11147 0.39013,-0.11147 0.208998,0 0.366908,0.13005 0.162554,0.1254 0.241508,0.33439 0.120755,-0.23686 0.306531,-0.34833 0.19042,-0.11611 0.394774,-0.11611 0.157909,0 0.301886,0.0604 0.148621,0.0604 0.260086,0.17649 0.111466,0.11611 0.176488,0.28795 0.06967,0.17184 0.06967,0.39013 V 7.0169 q 0,0.0604 -0.07431,0.11147 -0.06967,0.0511 -0.171843,0.0511 -0.09289,0 -0.167198,-0.0511 -0.07431,-0.0511 -0.07431,-0.11147 V 5.86509 q 0,-0.12075 -0.03715,-0.209 -0.03715,-0.0929 -0.09753,-0.15326 -0.06038,-0.065 -0.139332,-0.0929 -0.07896,-0.0325 -0.15791,-0.0325 -0.0836,0 -0.162554,0.0325 -0.07431,0.0325 -0.139332,0.0929 -0.06038,0.0604 -0.09753,0.15326 -0.03715,0.0883 -0.03715,0.19971 v 1.16575 q 0,0.0836 -0.07896,0.12075 -0.07431,0.0372 -0.167199,0.0372 -0.0836,0 -0.162554,-0.0372 -0.07895,-0.0372 -0.07895,-0.12075 z"
     id="path2080"
     style="font-weight:600;font-size:4.6444px;line-height:1.25;font-family:Dosis;-inkscape-font-specification:'Dosis, Semi-Bold';fill:url(#linearGradient2091);stroke-width:0.490664;font-variation-settings:normal;opacity:1;vector-effect:none;fill-opacity:1;stroke-linecap:round;stroke-linejoin:miter;stroke-miterlimit:4;stroke-dasharray:none;stroke-dashoffset:0;stroke-opacity:1;-inkscape-stroke:none;stop-color:#000000;stop-opacity:1" />
  <path
     d="m 26.631312,4.97799 q 0.09753,0 0.162554,0.0465 0.06502,0.0418 0.06502,0.11146 v 0.1672 q 0.07896,-0.13469 0.236865,-0.24151 0.162554,-0.11147 0.385485,-0.11147 0.171843,0 0.325108,0.0743 0.153265,0.0697 0.264731,0.19506 0.11611,0.1254 0.181131,0.2926 0.06502,0.1672 0.06502,0.35297 v 0.42729 q 0,0.18113 -0.06967,0.34833 -0.06502,0.16719 -0.176487,0.29724 -0.111466,0.1254 -0.260087,0.20435 -0.148621,0.0743 -0.311175,0.0743 -0.208998,0 -0.376196,-0.10682 -0.167198,-0.11146 -0.236864,-0.25544 v 1.20754 q 0,0.065 -0.07431,0.11147 -0.06967,0.0511 -0.176487,0.0511 -0.106821,0 -0.171843,-0.0511 -0.06502,-0.0465 -0.06502,-0.11147 V 5.13592 q 0,-0.0697 0.06502,-0.11146 0.06967,-0.0465 0.167199,-0.0465 z m 1.198255,0.88708 q 0,-0.0882 -0.03715,-0.17649 -0.03716,-0.0882 -0.106822,-0.15326 -0.06502,-0.0697 -0.153265,-0.11147 -0.08824,-0.0418 -0.185776,-0.0418 -0.0836,0 -0.167198,0.0325 -0.0836,0.0325 -0.148621,0.0975 -0.06502,0.0604 -0.106821,0.15326 -0.03715,0.0883 -0.03715,0.19971 v 0.53411 q 0,0.0418 0.03251,0.10682 0.03716,0.065 0.09753,0.13004 0.06502,0.0604 0.148621,0.10682 0.08824,0.0418 0.19042,0.0418 0.09289,0 0.176487,-0.0418 0.08824,-0.0418 0.153265,-0.11146 0.06502,-0.0697 0.102177,-0.15791 0.0418,-0.0883 0.0418,-0.18113 z"
     id="path2082"
     style="font-weight:600;font-size:4.6444px;line-height:1.25;font-family:Dosis;-inkscape-font-specification:'Dosis, Semi-Bold';fill:url(#linearGradient2091);stroke-width:0.490664;font-variation-settings:normal;opacity:1;vector-effect:none;fill-opacity:1;stroke-linecap:round;stroke-linejoin:miter;stroke-miterlimit:4;stroke-dasharray:none;stroke-dashoffset:0;stroke-opacity:1;-inkscape-stroke:none;stop-color:#000000;stop-opacity:1" />
</svg>
