<?xml version="1.0" encoding="UTF-8" standalone="no"?>
<svg
   width="28.821619mm"
   height="8.6244602mm"
   viewBox="0 0 28.821619 8.6244602"
   version="1.1"
   id="svg5"
   xmlns:xlink="http://www.w3.org/1999/xlink"
   xmlns="http://www.w3.org/2000/svg">
  <defs
     id="defs2">
    <linearGradient
       id="linearGradient359">
      <stop
         style="stop-color:#0ae7ff;stop-opacity:1;"
         offset="0"
         id="stop355" />
      <stop
         style="stop-color:#efff0a;stop-opacity:1;"
         offset="1"
         id="stop357" />
    </linearGradient>
    <linearGradient
       xlink:href="#linearGradient359"
       id="linearGradient2085"
       gradientUnits="userSpaceOnUse"
       gradientTransform="translate(-42.434904,-105.46758)"
       x1="50.440983"
       y1="108.14787"
       x2="50.440983"
       y2="112.54278" />
    <linearGradient
       xlink:href="#linearGradient359"
       id="linearGradient2087"
       gradientUnits="userSpaceOnUse"
       gradientTransform="translate(-42.364185,-105.46758)"
       x1="50.440983"
       y1="108.14787"
       x2="50.440983"
       y2="112.54278" />
    <linearGradient
       xlink:href="#linearGradient359"
       id="linearGradient2089"
       gradientUnits="userSpaceOnUse"
       gradientTransform="translate(-42.434904,-105.46758)"
       x1="50.440983"
       y1="108.14787"
       x2="50.440983"
       y2="112.54278" />
    <linearGradient
       xlink:href="#linearGradient359"
       id="linearGradient2091"
       gradientUnits="userSpaceOnUse"
       gradientTransform="translate(-42.434904,-105.46758)"
       x1="50.440983"
       y1="108.14787"
       x2="50.440983"
       y2="112.54278" />
    <linearGradient
       xlink:href="#linearGradient359"
       id="linearGradient888"
       gradientUnits="userSpaceOnUse"
       gradientTransform="translate(-42.330511,-105.46758)"
       x1="50.440983"
       y1="108.14787"
       x2="50.440983"
       y2="112.54278" />
    <linearGradient
       xlink:href="#linearGradient359"
       id="linearGradient890"
       gradientUnits="userSpaceOnUse"
       gradientTransform="translate(-42.285823,-105.46758)"
       x1="50.440983"
       y1="108.14787"
       x2="50.440983"
       y2="112.54278" />
    <linearGradient
       xlink:href="#linearGradient359"
       id="linearGradient892"
       gradientUnits="userSpaceOnUse"
       gradientTransform="translate(-42.330511,-105.46758)"
       x1="50.440983"
       y1="108.14787"
       x2="50.440983"
       y2="112.54278" />
    <linearGradient
       xlink:href="#linearGradient359"
       id="linearGradient894"
       gradientUnits="userSpaceOnUse"
       gradientTransform="translate(-42.330511,-105.46758)"
       x1="50.440983"
       y1="108.14787"
       x2="50.440983"
       y2="112.54278" />
    <linearGradient
       xlink:href="#linearGradient359"
       id="linearGradient1259"
       gradientUnits="userSpaceOnUse"
       gradientTransform="translate(-42.434904,-105.46758)"
       x1="50.440983"
       y1="108.14787"
       x2="50.440983"
       y2="112.54278" />
  </defs>
  <path
     d="M 0.25291,3.21159 Q 0.23174,3.16929 0.21058,3.11629 0.2,3.05279 0.2,3.01045 0.2,2.87287 0.316416,2.74587 0.432833,2.61887 0.591582,2.52362 0.760915,2.42842 0.951414,2.37546 q 0.201083,-0.0529 0.359833,-0.0529 0.148166,0 0.275165,0.0635 0.127,0.0529 0.179916,0.20108 l 1.09008,2.76224 1.09008,-2.76224 q 0.05292,-0.14816 0.169333,-0.20108 0.127,-0.0635 0.275166,-0.0635 0.126999,0 0.317499,0.0635 0.190499,0.0529 0.359832,0.14816 0.179916,0.0952 0.306916,0.22225 0.126999,0.127 0.126999,0.26459 0,0.0952 -0.04233,0.1905 L 3.597242,7.28613 q -0.0635,0.14816 -0.285749,0.21166 -0.211666,0.0741 -0.455082,0.0741 -0.243416,0 -0.465665,-0.0741 Q 2.17908,7.43429 2.11558,7.28613 Z"
     style="font-weight:800;font-size:10.5833px;line-height:1.25;font-family:Dosis;fill:url(#linearGradient2085);stroke:#4c4c4c;stroke-width:0.4;stroke-linecap:round;stroke-linejoin:round;stroke-dasharray:none;stroke-opacity:1;paint-order:stroke fill markers;stop-color:#000000"
     id="path1749" />
  <path
     d="m 8.2293583,2.33317 q 0.486832,0 0.920747,0.17992 0.433915,0.16933 0.761998,0.47625 0.3386657,0.29633 0.5291657,0.70908 0.201082,0.40216 0.201082,0.85725 V 5.2965 q 0,0.44449 -0.201082,0.84666 -0.1905,0.40217 -0.5291657,0.71966 -0.328083,0.30692 -0.761998,0.49742 -0.433915,0.17992 -0.920747,0.17992 -0.4868318,0 -0.9207468,-0.17992 Q 6.8746965,7.16974 6.5466135,6.86282 6.2185315,6.55591 6.0174485,6.15374 5.8269495,5.74099 5.8269495,5.2965 V 4.55567 q 0,-0.4445 0.190499,-0.84667 0.1905,-0.40216 0.507999,-0.70908 Q 6.8535295,2.693 7.2874445,2.51309 7.7319435,2.33317 8.2293583,2.33317 Z m 0.772581,2.2225 q 0,-0.14817 -0.0635,-0.28575 -0.0635,-0.14817 -0.169333,-0.254 Q 8.6738563,3.8995 8.5256903,3.836 8.3881083,3.7619 8.2293583,3.7619 q -0.158749,0 -0.296332,0.0741 -0.1375828,0.0635 -0.2434158,0.17992 -0.105833,0.10583 -0.169333,0.254 -0.05292,0.13758 -0.05292,0.28575 V 5.2965 q 0,0.3175 0.222249,0.57149 0.222249,0.24342 0.5397478,0.24342 0.317499,0 0.539748,-0.24342 Q 9.0019353,5.614 9.0019353,5.2965 Z"
     style="font-weight:800;font-size:10.5833px;line-height:1.25;font-family:Dosis;fill:url(#linearGradient2087);stroke:#4c4c4c;stroke-width:0.4;stroke-linecap:round;stroke-linejoin:round;stroke-dasharray:none;stroke-opacity:1;paint-order:stroke fill markers;stop-color:#000000"
     id="path1751" />
  <path
     d="m 12.243802,0.2 c 0.225777,0 0.419805,0.0459 0.582082,0.13759 0.162277,0.0917 0.243416,0.21166 0.243416,0.35983 v 6.2289 c 0,0.127 -0.08114,0.24342 -0.243416,0.34925 -0.162277,0.10583 -0.356305,0.15875 -0.582082,0.15875 -0.239888,0 -0.437443,-0.0529 -0.592664,-0.15875 -0.148167,-0.10583 -0.22225,-0.22225 -0.22225,-0.34925 v -6.2289 c 0,-0.14817 0.07408,-0.26811 0.22225,-0.35983 C 11.806359,0.24589 12.003914,0.2 12.243802,0.2 Z"
     style="font-weight:800;font-size:10.5833px;line-height:1.25;font-family:Dosis;fill:url(#linearGradient2089);stroke:#4c4c4c;stroke-width:0.4;stroke-linecap:round;stroke-linejoin:round;stroke-dasharray:none;stroke-opacity:1;paint-order:stroke fill markers;stop-color:#000000"
     id="path1753" />
  <path
     d="m 15.736296,5.64574 q 0,0.23284 0.09525,0.32809 0.09525,0.0847 0.338666,0.0847 h 0.455081 q 0.359833,0 0.529165,0.22225 0.169333,0.21167 0.169333,0.46567 0,0.26458 -0.169333,0.47625 -0.169332,0.21166 -0.529165,0.21166 h -0.455081 q -1.015997,0 -1.545162,-0.42333 Q 14.095885,6.5877 14.095885,5.64578 v -4.9424 q 0,-0.10583 0.07408,-0.20108 0.07408,-0.0952 0.190499,-0.15875 0.116417,-0.0635 0.254,-0.0952 0.148166,-0.0423 0.296332,-0.0423 0.158749,0 0.306916,0.0423 0.148166,0.0318 0.264582,0.0952 0.116416,0.0635 0.179916,0.15875 0.07408,0.0953 0.07408,0.20108 v 1.69333 h 1.195913 q 0.201083,0 0.296333,0.1905 0.105833,0.17992 0.105833,0.39158 0,0.22225 -0.105833,0.40217 -0.09525,0.17991 -0.296333,0.17991 H 15.73629 Z"
     style="font-weight:800;font-size:10.5833px;line-height:1.25;font-family:Dosis;fill:url(#linearGradient1259);stroke:#4c4c4c;stroke-width:0.4;stroke-linecap:round;stroke-linejoin:round;stroke-dasharray:none;stroke-opacity:1;paint-order:stroke fill markers;stop-color:#000000"
     id="path1755" />
  <path
     d="m 18.113771,6.84998 q 0.111465,0 0.19042,0.0836 0.0836,0.079 0.0836,0.19507 0,0.11146 -0.0836,0.19506 -0.07896,0.0836 -0.19042,0.0836 -0.120755,0 -0.19971,-0.0836 -0.07895,-0.0836 -0.07895,-0.19506 0,-0.11611 0.07895,-0.19507 0.07895,-0.0836 0.19971,-0.0836 z"
     id="path2074"
     style="font-weight:600;font-size:4.6444px;line-height:1.25;font-family:Dosis;font-variation-settings:normal;opacity:1;fill:url(#linearGradient2091);fill-opacity:1;stroke:#4c4c4c;stroke-width:0.4;stroke-linecap:round;stroke-linejoin:round;stroke-miterlimit:4;stroke-dasharray:none;stroke-dashoffset:0;stroke-opacity:1;paint-order:stroke fill markers;stop-color:#000000;stop-opacity:1" />
  <path
     d="M 19.787971,7.41659 C 19.661164,7.42016 19.475248,7.393357 19.351397,7.34689 19.230643,7.300423 19.130014,7.23695 19.049511,7.15647 18.972101,7.07287 18.914824,6.9753367 18.877669,6.86387 18.840519,6.74931 18.821939,6.62546 18.821939,6.49232 v -0.418 c 0,-0.13004 0.01858,-0.2507933 0.05573,-0.36226 0.03715,-0.1145667 0.09443,-0.2121 0.171842,-0.2926 0.0805,-0.0836 0.181132,-0.14862 0.301886,-0.19506 0.120755,-0.049533 0.264731,-0.0743 0.43193,-0.0743 0.105273,0 0.201257,0.010833 0.287952,0.0325 0.0867,0.0186 0.161007,0.044933 0.222932,0.079 0.06502,0.030933 0.11456,0.06654 0.14862,0.10682 0.03406,0.040267 0.05109,0.08052 0.05109,0.12076 0,0.046467 -0.01858,0.097553 -0.05573,0.15326 -0.03406,0.055733 -0.0805,0.0836 -0.139332,0.0836 -0.02477,0 -0.04954,-0.00773 -0.07431,-0.0232 -0.02477,-0.015467 -0.05574,-0.030967 -0.09289,-0.0465 -0.03406,-0.0186 -0.07586,-0.035633 -0.125399,-0.0511 -0.04954,-0.015467 -0.111465,-0.0232 -0.185776,-0.0232 -0.176487,0 -0.306531,0.04335 -0.39013,0.13005 -0.0805,0.086693 -0.120754,0.2074467 -0.120754,0.36226 v 0.418 c 0,0.1548133 0.04025,0.2755667 0.120754,0.36226 0.0836,0.086693 0.215191,0.13004 0.394774,0.13004 0.07741,0 0.14088,-0.00773 0.190421,-0.0232 0.04954,-0.015467 0.09134,-0.0325 0.125398,-0.0511 0.03715,-0.021667 0.06812,-0.040233 0.09289,-0.0557 0.02477,-0.015467 0.05109,-0.0232 0.07895,-0.0232 0.06502,0 0.116108,0.0263 0.153265,0.0789 0.03715,0.052667 0.05573,0.1037567 0.05573,0.15327 0,0.040267 -0.01858,0.082067 -0.05573,0.1254 -0.03715,0.040267 -0.08824,0.07742 -0.153265,0.11146 -0.06502,0.034067 -0.142427,0.061933 -0.23222,0.0836 -0.101771,0.026085 -0.165789,0.028941 -0.292596,0.03251 z"
     id="path2076"
     style="font-weight:600;font-size:4.6444px;line-height:1.25;font-family:Dosis;font-variation-settings:normal;opacity:1;fill:url(#linearGradient888);fill-opacity:1;stroke:#4c4c4c;stroke-width:0.4;stroke-linecap:round;stroke-linejoin:round;stroke-miterlimit:4;stroke-dasharray:none;stroke-dashoffset:0;stroke-opacity:1;paint-order:stroke fill markers;stop-color:#000000;stop-opacity:1" />
  <path
     d="m 21.620756,5.15012 c 0.17029,0.00131 0.314271,0.026333 0.431929,0.079 0.120755,0.049533 0.218287,0.1161033 0.292597,0.19971 0.07431,0.0836 0.128495,0.1795833 0.162554,0.28795 0.03406,0.1083733 0.05109,0.21984 0.05109,0.3344 v 1.16574 c 0,0.043333 -0.02322,0.082037 -0.06967,0.11611 -0.04335,0.031 -0.09908,0.0465 -0.167199,0.0465 -0.06193,0 -0.114563,-0.0155 -0.157909,-0.0465 -0.04335,-0.034067 -0.06502,-0.07277 -0.06502,-0.11611 V 7.05437 c -0.0805,0.095987 -0.178035,0.1811333 -0.292597,0.25544 -0.114562,0.071213 -0.250798,0.10682 -0.408707,0.10682 -0.0836,0 -0.164102,-0.012367 -0.241509,-0.0371 -0.07431,-0.0248 -0.139332,-0.061957 -0.195065,-0.11147 -0.05573,-0.0526 -0.100629,-0.1160733 -0.134688,-0.19042 -0.03096,-0.077407 -0.04644,-0.1687467 -0.04644,-0.27402 0,-0.13004 0.02632,-0.23841 0.07895,-0.32511 0.05264,-0.086693 0.12695,-0.15481 0.222931,-0.20435 0.09598,-0.049533 0.210547,-0.083593 0.343686,-0.10218 0.133139,-0.021667 0.280212,-0.0325 0.441218,-0.0325 h 0.204354 v -0.0836 c 0,-0.0588 -0.0077,-0.1176267 -0.02322,-0.17648 -0.01548,-0.061933 -0.0418,-0.11612 -0.07895,-0.16256 -0.03715,-0.049533 -0.08515,-0.088237 -0.143977,-0.11611 -0.05883,-0.030933 -0.130041,-0.0464 -0.213642,-0.0464 -0.0836,0 -0.153265,0.00773 -0.208998,0.0232 -0.05573,0.0124 -0.102177,0.027867 -0.139332,0.0464 -0.03715,0.0186 -0.06966,0.035633 -0.09753,0.0511 -0.02477,0.0124 -0.048,0.0186 -0.06967,0.0186 -0.05883,0 -0.103723,-0.026333 -0.134688,-0.079 -0.02787,-0.055733 -0.0418,-0.1114633 -0.0418,-0.16719 0,-0.040267 0.02167,-0.07897 0.06502,-0.11611 0.04335,-0.037133 0.09908,-0.0681 0.167198,-0.0929 0.06812,-0.027867 0.142429,-0.049533 0.222932,-0.065 0.08446,-0.017852 0.163361,-0.023946 0.246152,-0.02331 z m 0.450507,1.25864 h -0.11611 c -0.08979,0 -0.176488,0.00463 -0.260087,0.0139 -0.0805,0.006 -0.151717,0.021467 -0.213642,0.0464 -0.06193,0.021667 -0.113015,0.054167 -0.153265,0.0975 -0.03715,0.043333 -0.05573,0.10216 -0.05573,0.17648 0,0.1052733 0.02787,0.18268 0.0836,0.23222 0.05883,0.046467 0.131589,0.0697 0.218287,0.0697 0.05883,0 0.117656,-0.013933 0.176487,-0.0418 0.05883,-0.027867 0.111463,-0.063473 0.15791,-0.10682 0.04954,-0.043333 0.08824,-0.092873 0.11611,-0.14862 0.03096,-0.055733 0.04644,-0.1114667 0.04644,-0.1672 z"
     id="path2078"
     style="font-weight:600;font-size:4.6444px;line-height:1.25;font-family:Dosis;font-variation-settings:normal;opacity:1;fill:url(#linearGradient890);fill-opacity:1;stroke:#4c4c4c;stroke-width:0.4;stroke-linecap:round;stroke-linejoin:round;stroke-miterlimit:4;stroke-dasharray:none;stroke-dashoffset:0;stroke-opacity:1;paint-order:stroke fill markers;stop-color:#000000;stop-opacity:1" />
  <path
     d="m 24.362704,6.06043 q 0,-0.21829 -0.130044,-0.34833 -0.130043,-0.13005 -0.301886,-0.13005 -0.0836,0 -0.162554,0.0325 -0.07431,0.0279 -0.134687,0.0929 -0.06038,0.0604 -0.09753,0.15327 -0.03715,0.0882 -0.03715,0.20435 v 1.15181 q 0,0.0604 -0.07431,0.11147 -0.07431,0.0511 -0.171843,0.0511 -0.106821,0 -0.176487,-0.0511 -0.06502,-0.0511 -0.06502,-0.11147 V 5.3359 q 0,-0.0697 0.06502,-0.11146 0.06967,-0.0465 0.176487,-0.0465 0.08824,0 0.153265,0.0465 0.06502,0.0418 0.06502,0.11146 v 0.1672 q 0.07896,-0.13469 0.227575,-0.24151 0.153266,-0.11147 0.39013,-0.11147 0.208998,0 0.366908,0.13005 0.162554,0.1254 0.241508,0.33439 0.120755,-0.23686 0.306531,-0.34833 0.19042,-0.11611 0.394774,-0.11611 0.157909,0 0.301886,0.0604 0.148621,0.0604 0.260086,0.17649 0.111466,0.11611 0.176488,0.28795 0.06967,0.17184 0.06967,0.39013 V 7.2169 q 0,0.0604 -0.07431,0.11147 -0.06967,0.0511 -0.171843,0.0511 -0.09289,0 -0.167198,-0.0511 Q 25.71888,7.27727 25.71888,7.2169 V 6.06509 q 0,-0.12075 -0.03715,-0.209 -0.03715,-0.0929 -0.09753,-0.15326 -0.06038,-0.065 -0.139332,-0.0929 -0.07896,-0.0325 -0.15791,-0.0325 -0.0836,0 -0.162554,0.0325 -0.07431,0.0325 -0.139332,0.0929 -0.06038,0.0604 -0.09753,0.15326 -0.03715,0.0883 -0.03715,0.19971 v 1.16575 q 0,0.0836 -0.07896,0.12075 -0.07431,0.0372 -0.167199,0.0372 -0.0836,0 -0.162554,-0.0372 -0.07895,-0.0372 -0.07895,-0.12075 z"
     id="path2080"
     style="font-weight:600;font-size:4.6444px;line-height:1.25;font-family:Dosis;font-variation-settings:normal;opacity:1;fill:url(#linearGradient892);fill-opacity:1;stroke:#4c4c4c;stroke-width:0.4;stroke-linecap:round;stroke-linejoin:round;stroke-miterlimit:4;stroke-dasharray:none;stroke-dashoffset:0;stroke-opacity:1;paint-order:stroke fill markers;stop-color:#000000;stop-opacity:1" />
  <path
     d="m 26.935705,5.17799 q 0.09753,0 0.162554,0.0465 0.06502,0.0418 0.06502,0.11146 v 0.1672 q 0.07896,-0.13469 0.236865,-0.24151 0.162554,-0.11147 0.385485,-0.11147 0.171843,0 0.325108,0.0743 0.153265,0.0697 0.264731,0.19506 0.11611,0.1254 0.181131,0.2926 0.06502,0.1672 0.06502,0.35297 v 0.42729 q 0,0.18113 -0.06967,0.34833 -0.06502,0.16719 -0.176487,0.29724 -0.111466,0.1254 -0.260087,0.20435 -0.148621,0.0743 -0.311175,0.0743 -0.208998,0 -0.376196,-0.10682 Q 27.260806,7.19833 27.19114,7.05435 v 1.20754 q 0,0.065 -0.07431,0.11147 -0.06967,0.0511 -0.176487,0.0511 -0.106821,0 -0.171843,-0.0511 -0.06502,-0.0465 -0.06502,-0.11147 V 5.33592 q 0,-0.0697 0.06502,-0.11146 0.06967,-0.0465 0.167199,-0.0465 z m 1.198255,0.88708 q 0,-0.0882 -0.03715,-0.17649 -0.03716,-0.0882 -0.106822,-0.15326 -0.06502,-0.0697 -0.153265,-0.11147 -0.08824,-0.0418 -0.185776,-0.0418 -0.0836,0 -0.167198,0.0325 -0.0836,0.0325 -0.148621,0.0975 -0.06502,0.0604 -0.106821,0.15326 -0.03715,0.0883 -0.03715,0.19971 v 0.53411 q 0,0.0418 0.03251,0.10682 0.03716,0.065 0.09753,0.13004 0.06502,0.0604 0.148621,0.10682 0.08824,0.0418 0.19042,0.0418 0.09289,0 0.176487,-0.0418 0.08824,-0.0418 0.153265,-0.11146 0.06502,-0.0697 0.102177,-0.15791 0.0418,-0.0883 0.0418,-0.18113 z"
     id="path2082"
     style="font-weight:600;font-size:4.6444px;line-height:1.25;font-family:Dosis;font-variation-settings:normal;opacity:1;fill:url(#linearGradient894);fill-opacity:1;stroke:#4c4c4c;stroke-width:0.4;stroke-linecap:round;stroke-linejoin:round;stroke-miterlimit:4;stroke-dasharray:none;stroke-dashoffset:0;stroke-opacity:1;paint-order:stroke fill markers;stop-color:#000000;stop-opacity:1" />
</svg>
